<?xml version="1.0" encoding="utf-8"?>
<!-- Generator: Adobe Illustrator 17.0.0, SVG Export Plug-In . SVG Version: 6.00 Build 0)  -->
<!DOCTYPE svg PUBLIC "-//W3C//DTD SVG 1.0//EN" "http://www.w3.org/TR/2001/REC-SVG-20010904/DTD/svg10.dtd">
<svg version="1.0" id="Layer_1" xmlns="http://www.w3.org/2000/svg" xmlns:xlink="http://www.w3.org/1999/xlink" x="0px" y="0px"
	 width="272.13px" height="272.13px" viewBox="0 0 272.13 272.13" enable-background="new 0 0 272.13 272.13" xml:space="preserve">
<path fill="#878787" d="M137.182,19.769c-63.194,0-114.423,51.229-114.423,114.423s51.229,114.423,114.423,114.423
	s114.423-51.229,114.423-114.423S200.376,19.769,137.182,19.769z M66.915,100.434c-2.334,0.509-3.923,1.186-4.766,2.034
	c-1.293,1.299-1.94,3.575-1.94,6.824v9.833c0,3.165-0.424,5.68-1.273,7.544c-1.442,3.137-4.272,5.68-8.487,7.629
	c3.819,1.555,6.387,3.363,7.702,5.426s2.001,4.917,2.058,8.561v10.724c0,3.136,0.759,5.397,2.277,6.781
	c0.845,0.819,2.32,1.54,4.429,2.162v6.79l-3.006-0.085c-4.037-0.114-7.571-1.323-10.606-3.628
	c-3.035-2.307-4.552-5.665-4.552-10.079v-13.283c0-3.565-1.075-6.295-3.225-8.191c-1.302-1.159-3.169-2.079-5.602-2.758v-5.134
	c2.744-0.934,4.682-1.967,5.815-3.098c2.009-1.952,3.012-4.937,3.012-8.955v-11.373c0-1.443,0.24-2.956,0.72-4.541
	c0.846-2.743,2.286-4.923,4.318-6.535c1.863-1.471,4.05-2.447,6.562-2.928c1.525-0.311,3.712-0.481,6.563-0.509V100.434z
	 M124.673,164.884H80.368v-62.553h13.071v51.307h31.234V164.884z M144.914,164.884H132.65v-46.257h12.264V164.884z M182.705,164.884
	l-7.961-13.907l-8.039,13.907h-14.683l15.787-23.426l-15.108-22.746h14.812l7.727,13.399l7.55-13.399h14.386l-15.194,22.534
	l15.787,23.638H182.705z M228.965,139.348c-2.236,1.925-3.354,4.697-3.354,8.318v13.283c0,4.3-1.489,7.631-4.466,9.994
	c-2.978,2.361-6.565,3.599-10.76,3.713l-3.021,0.085v-6.79c2.122-0.622,3.607-1.357,4.456-2.205c1.442-1.412,2.193-3.659,2.25-6.739
	v-10.724c0-4.012,0.78-6.986,2.343-8.921c1.561-1.936,4.046-3.624,7.453-5.066c-3.719-1.808-6.282-3.864-7.688-6.167
	c-1.406-2.303-2.107-5.305-2.107-9.007v-9.833c0-3.136-0.503-5.27-1.507-6.399c-1.005-1.13-2.738-1.949-5.199-2.459v-6.79
	c2.835,0.028,5.019,0.198,6.55,0.509c2.524,0.482,4.736,1.457,6.637,2.928c1.899,1.472,3.219,3.282,3.956,5.432
	c0.737,2.151,1.105,4.031,1.105,5.645v11.373c0,4.046,0.92,7.017,2.759,8.912c1.131,1.132,3.154,2.179,6.069,3.141v5.134
	C232.034,137.397,230.21,138.274,228.965,139.348z"/>
<circle fill="#E6332A" cx="138.782" cy="107.53" r="7.184"/>
</svg>
