<?xml version="1.0" encoding="utf-8"?>
<!-- Generator: Adobe Illustrator 17.0.0, SVG Export Plug-In . SVG Version: 6.00 Build 0)  -->
<!DOCTYPE svg PUBLIC "-//W3C//DTD SVG 1.0//EN" "http://www.w3.org/TR/2001/REC-SVG-20010904/DTD/svg10.dtd">
<svg version="1.0" id="Layer_1" xmlns="http://www.w3.org/2000/svg" xmlns:xlink="http://www.w3.org/1999/xlink" x="0px" y="0px"
	 width="272.13px" height="137.308px" viewBox="0 0 272.13 137.308" enable-background="new 0 0 272.13 137.308"
	 xml:space="preserve">
<path fill="#575756" d="M20.221,86.245c0-4.749-1.433-8.385-4.296-10.912c-1.734-1.544-4.222-2.77-7.463-3.674v-6.84
	c3.655-1.244,6.237-2.62,7.746-4.127c2.676-2.601,4.013-6.577,4.013-11.929V33.612c0-1.923,0.319-3.938,0.96-6.05
	c1.127-3.654,3.045-6.558,5.753-8.706c2.482-1.959,5.395-3.259,8.742-3.901c2.031-0.414,4.944-0.641,8.744-0.678v9.046
	c-3.109,0.678-5.226,1.58-6.349,2.71c-1.722,1.731-2.584,4.762-2.584,9.091v13.099c0,4.216-0.565,7.566-1.696,10.051
	c-1.922,4.179-5.691,7.566-11.306,10.163c5.088,2.071,8.508,4.481,10.26,7.228c1.752,2.748,2.666,6.55,2.742,11.404v14.286
	c0,4.178,1.012,7.189,3.033,9.034c1.125,1.091,3.091,2.051,5.9,2.88v9.045l-4.005-0.113c-5.377-0.152-10.087-1.763-14.129-4.834
	c-4.043-3.073-6.064-7.547-6.064-13.427V86.245z"/>
<polygon fill="#575756" points="62.341,25.851 79.755,25.851 79.755,94.201 121.364,94.201 121.364,109.183 62.341,109.183 "/>
<circle fill="#BE1622" cx="140.16" cy="32.776" r="9.57"/>
<rect x="131.991" y="47.56" fill="#575756" width="16.338" height="61.623"/>
<polygon fill="#575756" points="157.799,109.183 178.83,77.975 158.703,47.673 178.435,47.673 188.729,65.522 198.788,47.673 
	217.953,47.673 197.712,77.693 218.743,109.183 198.674,109.183 188.069,90.656 177.36,109.183 "/>
<path fill="#575756" d="M231.524,122.314v-9.045c2.827-0.829,4.805-1.808,5.936-2.937c1.922-1.882,2.921-4.875,2.997-8.977V87.07
	c0-5.345,1.04-9.306,3.121-11.884c2.079-2.579,5.389-4.828,9.929-6.748c-4.954-2.408-8.369-5.147-10.242-8.215
	c-1.874-3.068-2.807-7.068-2.807-11.999V35.124c0-4.178-0.67-7.021-2.007-8.525c-1.339-1.505-3.648-2.597-6.926-3.275v-9.046
	c3.777,0.038,6.686,0.264,8.726,0.678c3.362,0.642,6.309,1.941,8.841,3.901c2.53,1.96,4.288,4.373,5.27,7.236
	c0.982,2.865,1.473,5.37,1.473,7.519v15.151c0,5.39,1.225,9.348,3.675,11.872c1.507,1.508,4.202,2.903,8.085,4.184v6.84
	c-3.205,0.905-5.635,2.073-7.293,3.505c-2.979,2.564-4.468,6.257-4.468,11.081v17.696c0,5.729-1.983,10.166-5.95,13.314
	c-3.967,3.146-8.746,4.795-14.335,4.946L231.524,122.314z"/>
</svg>
